#define tiw_width 60
#define tiw_height 60
static char tiw_bits[] = {
   0x00, 0x00, 0x00, 0x00, 0x00, 0x00, 0x00, 0xf0, 0x00, 0x00, 0x20, 0x00,
   0x00, 0x00, 0x00, 0xf0, 0x00, 0x00, 0x10, 0x00, 0x00, 0x00, 0x00, 0xf0,
   0x00, 0x00, 0x08, 0x40, 0x00, 0x00, 0x00, 0xf0, 0x00, 0x00, 0x08, 0x00,
   0x04, 0x00, 0x00, 0xf0, 0x00, 0x00, 0x0c, 0x00, 0x60, 0x00, 0x00, 0xf0,
   0x00, 0x00, 0x0c, 0x00, 0x80, 0x06, 0x00, 0xf0, 0x00, 0x00, 0x0c, 0x00,
   0x80, 0x0a, 0x00, 0xf0, 0x00, 0x00, 0x18, 0x00, 0x80, 0x00, 0x00, 0xf0,
   0x00, 0x00, 0x18, 0x00, 0x20, 0x10, 0x00, 0xf0, 0x00, 0x00, 0x38, 0x00,
   0x08, 0x00, 0x00, 0xf0, 0x00, 0x00, 0x78, 0x00, 0x02, 0x20, 0x00, 0xf0,
   0x00, 0x00, 0xf0, 0x80, 0x00, 0x00, 0x00, 0xf0, 0x00, 0x00, 0xf0, 0x21,
   0x00, 0x40, 0x00, 0xf0, 0x00, 0x00, 0xf0, 0x0b, 0x00, 0x00, 0x00, 0xf0,
   0x00, 0x00, 0xf0, 0x07, 0x00, 0x80, 0x00, 0xf0, 0x00, 0x00, 0xf8, 0x1f,
   0x00, 0x00, 0x00, 0xf0, 0x00, 0x00, 0xfc, 0x3f, 0x00, 0x00, 0x00, 0xf0,
   0x00, 0x00, 0x7a, 0xff, 0x00, 0x00, 0x00, 0xf0, 0x00, 0x80, 0xa4, 0xff,
   0x03, 0x00, 0x02, 0xf0, 0x00, 0x80, 0x03, 0xfe, 0x0f, 0x00, 0x02, 0xf0,
   0x00, 0x80, 0x47, 0xfe, 0x3f, 0x80, 0x01, 0xf0, 0x00, 0x00, 0x20, 0xff,
   0xc3, 0x1f, 0x00, 0xf0, 0x00, 0x00, 0xa0, 0xff, 0x11, 0x00, 0x00, 0xf0,
   0x00, 0x00, 0x30, 0xff, 0x21, 0x00, 0x00, 0xf0, 0x00, 0x00, 0x00, 0xff,
   0x3f, 0x00, 0x00, 0xf0, 0x00, 0x00, 0x88, 0xff, 0x01, 0x00, 0x00, 0xf0,
   0x00, 0x00, 0x74, 0xff, 0x91, 0x00, 0x00, 0xf0, 0x00, 0x00, 0x07, 0xff,
   0x0f, 0x01, 0x00, 0xf0, 0x00, 0x00, 0xff, 0xff, 0xff, 0x01, 0x00, 0xf0,
   0x00, 0x00, 0xff, 0xff, 0xff, 0x0f, 0x00, 0xf0, 0x00, 0xe0, 0x01, 0x00,
   0x00, 0x08, 0x00, 0xf0, 0x00, 0xe0, 0x01, 0x00, 0x00, 0x08, 0x00, 0xf0,
   0x00, 0xe0, 0x01, 0x00, 0x00, 0x08, 0x00, 0xf0, 0x00, 0xe0, 0xe1, 0x81,
   0x0f, 0x0c, 0x00, 0xf0, 0x00, 0xe0, 0xe1, 0x81, 0x0f, 0x0c, 0x00, 0xf0,
   0x00, 0xe0, 0x01, 0x00, 0x00, 0x08, 0x00, 0xf0, 0x00, 0xe0, 0x01, 0x00,
   0x00, 0x08, 0x00, 0xf0, 0x00, 0xe0, 0x01, 0x00, 0x00, 0x00, 0x00, 0xf0,
   0x00, 0x00, 0x00, 0x00, 0x00, 0x00, 0x00, 0xf0, 0x00, 0x00, 0x00, 0x00,
   0x00, 0x00, 0x00, 0xf0, 0x00, 0x00, 0x00, 0x00, 0x00, 0x00, 0x00, 0xf0,
   0x00, 0x00, 0x00, 0x00, 0x00, 0x00, 0x00, 0xf0, 0x00, 0xfe, 0x1f, 0x1f,
   0x8f, 0xc7, 0x03, 0xf0, 0x00, 0xfe, 0x1f, 0x1f, 0x8f, 0xc7, 0x03, 0xf0,
   0x00, 0xfe, 0x1f, 0x1f, 0x8f, 0xc7, 0x03, 0xf0, 0x00, 0xfe, 0x1f, 0x1f,
   0x8f, 0xc7, 0x03, 0xf0, 0x00, 0xe0, 0x01, 0x1f, 0x8f, 0xc7, 0x03, 0xf0,
   0x00, 0xe0, 0x01, 0x1f, 0x8f, 0xc7, 0x03, 0xf0, 0x00, 0xe0, 0x01, 0x1f,
   0x8f, 0xc7, 0x03, 0xf0, 0x00, 0xe0, 0x01, 0x1f, 0x8f, 0xc7, 0x03, 0xf0,
   0x00, 0xe0, 0x01, 0x1f, 0x8f, 0xc7, 0x03, 0xf0, 0x00, 0xe0, 0x01, 0x1f,
   0x8f, 0xc7, 0x03, 0xf0, 0x00, 0xe0, 0x01, 0x1f, 0x8f, 0xc7, 0x03, 0xf0,
   0x00, 0xe0, 0x01, 0x1f, 0x8f, 0xc7, 0x03, 0xf0, 0x00, 0xe0, 0x01, 0x1f,
   0xff, 0xff, 0x03, 0xf0, 0x00, 0xe0, 0x01, 0x1f, 0xff, 0xff, 0x03, 0xf0,
   0x00, 0xe0, 0x01, 0x1f, 0xff, 0xff, 0x03, 0xf0, 0x00, 0xe0, 0x01, 0x1f,
   0xfe, 0xff, 0x01, 0xf0, 0x00, 0x00, 0x00, 0x00, 0x00, 0x00, 0x00, 0xf0};

